<?xml version="1.0" encoding="UTF-8"?>
<!DOCTYPE svg PUBLIC "-//W3C//DTD SVG 1.1//EN" "http://www.w3.org/Graphics/SVG/1.1/DTD/svg11.dtd">
<!-- Creator: CorelDRAW X7 -->
<svg xmlns="http://www.w3.org/2000/svg" xml:space="preserve" width="77.9247mm" height="21.5114mm" version="1.1" style="shape-rendering:geometricPrecision; text-rendering:geometricPrecision; image-rendering:optimizeQuality; fill-rule:evenodd; clip-rule:evenodd"
viewBox="0 0 13727 3790"
 xmlns:xlink="http://www.w3.org/1999/xlink">
 <defs>
  <style type="text/css">
   <![CDATA[
    .fil0 {fill:none}
    .fil2 {fill:#FEFEFE}
    .fil3 {fill:#373435}
    .fil1 {fill:#3971B6}
    .fil5 {fill:#373435;fill-rule:nonzero}
    .fil4 {fill:#3971B6;fill-rule:nonzero}
   ]]>
  </style>
 </defs>
 <g id="Layer_x0020_1">
  <metadata id="CorelCorpID_0Corel-Layer"/>
  <rect class="fil0" width="13727" height="3790"/>
  <g id="_1694688731808">
   <path class="fil1" d="M1062 2010c-42,-154 202,-209 239,-66 42,159 -201,208 -239,66zm-407 508c163,5 333,0 498,0 168,0 235,-17 349,-149 161,-188 200,-566 33,-762 -120,-141 -221,-110 -391,-110 -124,3 -247,4 -340,4 -30,167 -112,729 -149,1017z"/>
   <path class="fil1" d="M1385 1455c295,79 346,340 322,613l514 5 86 -620 -335 0 56 -398 -586 -2 -57 402z"/>
   <path class="fil2" d="M1062 2010c38,142 281,93 239,-66 -37,-143 -281,-88 -239,66z"/>
   <path class="fil1" d="M2029 2498c-17,-16 -108,-71 -140,-94 -64,-47 -114,-53 -192,-40 -8,78 219,244 332,134z"/>
   <path class="fil1" d="M2454 2188c136,-41 247,-139 234,-291 -31,10 -108,83 -140,113 -61,58 -76,90 -94,178z"/>
   <path class="fil1" d="M2594 1694c95,-29 215,-162 183,-332 -17,4 -179,159 -183,332z"/>
   <path class="fil1" d="M2552 1921c107,-27 228,-136 200,-300 -4,3 -107,106 -124,123 -53,51 -67,103 -76,177z"/>
   <path class="fil1" d="M2622 1479c20,0 17,13 71,-48 66,-73 128,-198 77,-294 -12,13 -78,118 -95,144 -38,60 -51,128 -53,198z"/>
   <path class="fil1" d="M2578 1482c20,-19 22,-24 27,-93 4,-81 -45,-276 -64,-303 -73,123 -30,281 37,396z"/>
   <path class="fil1" d="M2406 2231c69,-49 100,-311 10,-380 -2,6 -33,163 -36,183 -8,63 -4,142 26,197z"/>
   <path class="fil1" d="M2363 2334c155,16 255,-34 267,-200 -65,36 -60,54 -146,87 -57,21 -107,55 -121,113z"/>
   <path class="fil1" d="M2574 1710c16,-125 -20,-262 -77,-370 -76,80 5,354 77,370z"/>
   <path class="fil1" d="M2242 2447c-96,-38 -214,-100 -315,-87 12,47 127,148 232,137 34,-4 68,-19 83,-50z"/>
   <path class="fil1" d="M2545 1943c1,-163 -13,-223 -79,-371 -71,61 -21,308 79,371z"/>
   <path class="fil1" d="M2162 2330c120,-22 215,-116 198,-244 -15,1 -100,79 -119,96 -40,35 -69,92 -79,148z"/>
   <path class="fil1" d="M1717 2343c108,14 263,-68 301,-158 -122,9 -237,61 -301,158z"/>
   <path class="fil1" d="M1931 2342c126,0 233,-61 274,-180 -104,23 -225,90 -274,180z"/>
   <path class="fil1" d="M2182 2345c-3,13 -18,-10 10,21 72,82 239,80 293,2 -147,-12 -233,-58 -303,-23z"/>
   <path class="fil1" d="M2626 1279c80,-52 113,-250 26,-293 -57,88 -38,195 -26,293z"/>
  </g>
  <path class="fil0" d="M1722 295c809,0 1465,656 1465,1465 0,810 -656,1466 -1465,1466 -809,0 -1466,-656 -1466,-1466 0,-809 657,-1465 1466,-1465z"/>
  <path class="fil3" d="M1108 487l79 -32c15,-6 27,-10 35,-12 8,-2 16,-2 24,0 8,1 15,5 22,10 7,5 12,12 15,20 4,10 5,19 3,29 -1,9 -6,18 -13,25 14,-1 25,1 35,7 10,6 17,14 22,26 4,9 5,18 4,28 0,11 -3,20 -8,28 -6,8 -13,14 -23,20 -7,3 -22,10 -48,21l-67 27 -80 -197zm53 17l19 45 26 -10c15,-7 25,-11 28,-13 7,-3 11,-8 13,-13 3,-6 2,-12 0,-18 -3,-6 -6,-10 -11,-13 -5,-2 -11,-3 -18,-1 -4,1 -15,6 -34,13l-23 10zm32 78l22 53 36 -15c15,-6 24,-10 27,-13 6,-3 9,-8 11,-13 2,-6 2,-12 -1,-19 -2,-6 -6,-11 -10,-14 -5,-3 -10,-4 -16,-4 -7,1 -19,4 -37,12l-32 13zm163 -74c-4,-21 -5,-40 -2,-56 2,-11 6,-22 12,-33 7,-10 14,-18 23,-25 12,-8 26,-14 43,-18 30,-7 57,-3 80,11 22,15 38,40 45,73 8,34 5,62 -9,85 -13,24 -36,39 -66,46 -31,7 -58,3 -80,-12 -23,-14 -38,-38 -46,-71zm43 -12c6,24 15,40 29,50 14,10 29,13 46,9 16,-4 29,-13 37,-28 7,-14 9,-34 3,-58 -5,-23 -15,-40 -28,-49 -13,-10 -28,-12 -46,-8 -17,4 -29,13 -37,27 -8,14 -9,34 -4,57zm27 -146l-13 14 -28 7 27 -26 25 -6 35 12 -28 6 -18 -7zm47 299l-10 -40 40 -9 9 39 -39 10zm281 -86l2 -90 -77 -124 51 1 49 85 50 -84 49 1 -79 122 -2 89 -43 0zm270 38l47 -171 -61 -17 10 -34 163 45 -10 35 -60 -17 -48 170 -41 -11zm128 39l89 -194 143 66 -15 33 -104 -48 -20 43 97 44 -15 33 -97 -44 -24 52 108 50 -15 32 -147 -67zm172 -175l-19 3 -26 -12 36 -4 24 11 21 30 -26 -12 -10 -16zm-11 -19l26 -15 42 19 -44 6 -24 -10z"/>
  <path class="fil3" d="M209 1946l16 84c3,16 5,29 5,37 0,9 -2,16 -5,24 -3,7 -8,13 -14,19 -7,6 -15,9 -24,11 -9,2 -19,1 -28,-3 -9,-4 -16,-10 -22,-18 -2,14 -6,25 -14,33 -7,9 -17,14 -29,16 -10,2 -20,1 -30,-1 -9,-3 -18,-8 -25,-14 -6,-7 -11,-16 -15,-27 -2,-7 -5,-24 -11,-51l-13 -71 209 -39zm-27 49l-48 9 5 28c3,16 5,26 7,30 2,7 5,12 10,16 5,3 11,4 18,3 6,-1 11,-4 15,-8 3,-5 4,-10 4,-18 0,-4 -2,-16 -6,-36l-5 -24zm-83 16l-56 10 8 39c2,15 5,25 6,29 3,6 6,11 11,14 6,3 12,4 19,2 7,-1 12,-3 16,-7 3,-4 6,-9 7,-15 1,-6 -1,-19 -4,-38l-7 -34zm-56 184l205 -57 42 152 -34 10 -31 -111 -45 13 28 103 -35 9 -28 -102 -56 15 32 114 -34 10 -44 -156zm256 15l-14 -12 -8 -28 27 26 7 24 -10 36 -8 -28 6 -18zm-295 62l39 -11 11 39 -39 11 -11 -39zm97 113l194 -89 17 38 -93 139 129 -59 17 36 -193 89 -18 -39 91 -137 -127 58 -17 -36zm91 194l184 -107 22 37 -73 43 43 72 72 -42 22 37 -184 107 -22 -37 81 -47 -43 -72 -80 47 -22 -38zm197 291l111 -197 30 35 -83 144 153 -64 30 34 -210 83 -31 -35zm96 106l147 -154 31 30 -147 153 -31 -29zm60 58l141 -159 118 104 -24 27 -85 -76 -32 36 80 70 -24 27 -80 -70 -38 43 89 78 -24 27 -121 -107zm223 -127l-19 -2 -21 -19 36 7 19 17 11 35 -21 -19 -5 -19zm-214 213l27 -31 30 27 -27 31 -30 -27zm143 41l116 -178 35 23 -4 167 77 -119 34 21 -116 179 -36 -24 4 -164 -77 117 -33 -22zm339 -41l71 31c17,7 28,14 36,20 10,8 17,19 21,31 5,12 7,25 5,40 -1,14 -5,30 -13,48 -7,17 -15,29 -24,39 -11,13 -23,21 -36,26 -10,4 -21,5 -34,3 -10,0 -22,-4 -37,-10l-74 -32 85 -196zm25 50l-56 130 29 12c11,5 19,8 25,9 7,1 13,0 19,-2 6,-2 12,-6 18,-14 7,-7 13,-19 20,-34 6,-15 10,-27 11,-36 1,-10 0,-18 -3,-24 -3,-7 -8,-12 -14,-17 -5,-4 -16,-9 -32,-16l-17 -8zm272 281l-44 -12 -5 -52 -82 -23 -30 42 -44 -12 136 -183 44 12 25 228zm-53 -102l-7 -84 -49 68 56 16zm158 122l28 -209 42 6 -22 173 105 14 -4 36 -149 -20zm178 20l7 -213 43 1 -7 213 -43 -1zm84 4l-5 -213 158 -4 1 36 -115 3 1 47 107 -2 0 36 -106 2 1 58 119 -3 1 36 -162 4zm78 -233l-16 11 -28 1 31 -20 26 0 32 18 -29 1 -16 -11zm-49 -12c0,-6 2,-12 8,-17 5,-5 12,-8 21,-8 6,0 14,2 25,6 7,2 13,3 16,3 6,0 9,-3 10,-10l17 -1c-1,17 -10,25 -28,25 -6,1 -14,-1 -24,-5 -9,-3 -15,-4 -18,-4 -6,0 -10,4 -11,11l-16 0zm144 23l42 -5 14 115c2,18 4,29 6,35 3,8 8,15 15,19 8,4 17,6 29,5 12,-2 21,-5 26,-11 6,-6 9,-12 9,-20 0,-7 0,-19 -2,-36l-14 -117 42 -5 14 111c3,26 4,44 3,54 -1,11 -5,21 -10,29 -5,8 -13,14 -23,20 -9,5 -23,9 -39,11 -20,2 -36,2 -47,-2 -11,-3 -20,-8 -27,-15 -7,-7 -12,-14 -14,-22 -5,-12 -8,-29 -11,-53l-13 -113zm362 143l-56 -167 -60 20 -11 -34 160 -54 11 34 -59 20 56 168 -41 13zm127 -44l-88 -193 82 -38c21,-9 37,-14 48,-15 11,-1 21,2 31,8 10,7 17,16 22,27 7,15 8,29 4,42 -4,13 -15,25 -30,35 10,1 20,4 28,7 8,3 20,11 36,21l41 28 -47 21 -47 -30c-17,-10 -28,-17 -34,-19 -5,-2 -10,-3 -15,-3 -5,1 -12,3 -21,7l-8 4 37 81 -39 17zm-12 -129l29 -13c19,-9 30,-15 34,-19 4,-3 7,-8 8,-13 1,-5 0,-10 -3,-16 -3,-7 -7,-11 -12,-14 -6,-2 -12,-2 -19,0 -3,1 -13,5 -28,12l-31 14 22 49zm92 -137l36 -24 63 97c10,15 17,25 21,29 6,6 13,10 22,11 9,0 18,-3 28,-9 10,-7 16,-14 19,-21 2,-8 2,-15 -1,-22 -3,-6 -9,-17 -18,-31l-64 -99 36 -23 61 94c14,21 22,37 26,47 4,10 5,20 4,29 -1,10 -5,19 -11,28 -7,10 -17,19 -31,28 -17,11 -31,18 -43,19 -11,2 -21,1 -30,-2 -10,-3 -17,-7 -23,-13 -9,-9 -20,-23 -33,-43l-62 -95zm295 61l-133 -166 33 -26 157 56 -89 -111 31 -25 133 166 -33 27 -155 -55 88 109 -32 25zm179 -261l-26 -24 63 -68 62 59c0,12 -3,27 -10,44 -7,17 -17,32 -29,45 -15,16 -31,27 -50,32 -18,6 -36,6 -54,0 -19,-6 -35,-16 -50,-30 -16,-15 -28,-32 -34,-51 -6,-19 -6,-37 -1,-57 4,-15 14,-29 28,-44 18,-19 36,-31 54,-34 18,-3 36,1 53,11l-23 37c-10,-5 -20,-7 -30,-5 -10,2 -19,7 -28,16 -13,14 -18,29 -17,45 1,16 10,32 27,48 18,18 36,27 53,27 17,1 31,-6 44,-19 6,-6 11,-14 14,-23 4,-9 6,-18 7,-26l-20 -18 -33 35zm120 -378l23 -34 24 16c10,6 17,12 22,18 5,5 8,12 9,19 2,12 0,27 -8,44l16 10c21,14 36,25 44,33 7,7 12,16 15,25 6,20 1,43 -16,68 -18,29 -38,44 -60,46 -9,1 -18,0 -26,-3 -12,-4 -28,-13 -48,-26l-95 -62 24 -36 96 63c16,10 26,16 31,18 18,7 34,1 47,-19 12,-19 12,-34 -1,-46 -5,-5 -15,-12 -29,-21l-99 -64 23 -37 64 42c5,-13 6,-24 3,-33 -2,-5 -6,-10 -14,-15l-10 16 -35 -22zm130 -13c21,10 40,12 57,7 15,-4 27,-15 34,-31 7,-16 7,-31 0,-46 -7,-15 -22,-28 -44,-38 -21,-9 -40,-12 -56,-7 -15,4 -27,15 -34,31 -7,17 -8,33 -1,47 7,15 22,28 44,37zm-34 -185l17 -37 26 12c11,4 20,9 25,14 5,5 9,10 12,18 2,7 3,15 3,24 5,1 11,4 17,6 31,14 52,34 62,59 11,25 10,51 -3,80 -13,29 -32,48 -58,57 -25,9 -53,7 -84,-7 -33,-14 -54,-35 -65,-61 -9,-24 -8,-50 5,-78 13,-29 32,-48 58,-57 15,-6 32,-7 49,-4 0,-12 -6,-21 -19,-27l-8 17 -37 -16zm217 28l-201 -68 13 -39 163 -37 -135 -46 13 -38 201 68 -13 41 -161 37 133 45 -13 37zm4 -317l-36 -6 17 -91 84 16c7,10 12,24 15,42 4,18 4,36 1,53 -4,22 -13,40 -25,55 -12,14 -28,24 -46,29 -19,5 -38,5 -58,2 -22,-4 -41,-13 -56,-25 -15,-12 -26,-28 -31,-47 -5,-15 -5,-32 -2,-52 5,-26 15,-46 28,-58 14,-13 31,-19 51,-20l0 44c-11,1 -20,5 -28,12 -7,7 -12,16 -14,29 -4,18 -1,34 9,47 10,13 26,21 49,26 25,4 45,2 59,-6 15,-9 24,-22 27,-40 2,-9 1,-18 0,-28 -2,-9 -5,-18 -9,-25l-26 -5 -9 48z"/>
  <path class="fil4" d="M4552 1597c0,-29 -7,-51 -23,-67 -15,-15 -44,-30 -84,-44 -41,-15 -72,-30 -94,-46 -21,-16 -37,-34 -48,-55 -11,-20 -16,-44 -16,-70 0,-46 15,-84 46,-113 30,-30 70,-45 120,-45 33,0 63,8 90,23 26,15 47,36 61,63 14,27 21,57 21,89l-73 0c0,-36 -8,-63 -25,-83 -17,-19 -42,-29 -74,-29 -30,0 -52,8 -69,25 -16,16 -24,39 -24,68 0,25 9,45 26,62 18,16 45,31 81,44 57,19 98,42 122,69 25,28 37,64 37,108 0,47 -15,84 -46,112 -30,29 -71,43 -124,43 -33,0 -64,-8 -93,-22 -28,-15 -50,-36 -67,-62 -16,-27 -24,-57 -24,-92l73 0c0,36 10,64 30,83 20,20 47,30 81,30 32,0 56,-8 72,-24 16,-17 24,-39 24,-67z"/>
  <path id="1" class="fil4" d="M5105 1280c0,47 -9,80 -25,100 -16,20 -44,30 -82,31l0 332 -67 0 -1 -38c-23,31 -57,46 -102,46 -39,0 -68,-14 -88,-40 -20,-27 -30,-66 -30,-118l0 -279 70 0 0 274c0,67 20,100 60,100 42,0 72,-19 88,-57l0 -317 70 0 0 52c18,0 31,-4 39,-12 9,-7 13,-20 14,-38l1 -36 53 0zm-209 -136l89 0 -107 116 -59 0 77 -116z"/>
  <path id="2" class="fil4" d="M5306 1691c23,0 42,-8 56,-22 14,-14 22,-35 23,-61l66 0c-1,41 -16,75 -43,102 -28,27 -62,41 -102,41 -53,0 -93,-17 -121,-50 -28,-34 -42,-84 -42,-150l0 -47c0,-65 14,-114 42,-147 27,-34 68,-51 121,-51 44,0 79,14 104,42 26,27 40,65 41,113l-66 0c-1,-31 -9,-55 -23,-71 -13,-16 -32,-24 -56,-24 -31,0 -54,10 -69,31 -15,20 -23,54 -24,101l0 54c0,51 8,86 23,107 14,21 38,32 70,32z"/>
  <polygon id="3" class="fil4" points="5826,1546 5789,1589 5789,1743 5719,1743 5719,1134 5789,1134 5789,1498 5922,1314 6006,1314 5870,1493 6024,1743 5942,1743 "/>
  <path id="4" class="fil4" d="M6154 1358c27,-35 61,-52 102,-52 76,0 114,51 116,152l0 285 -70 0 0 -282c0,-33 -6,-57 -17,-71 -11,-15 -28,-22 -51,-22 -17,0 -33,6 -47,18 -13,11 -25,27 -33,45l0 312 -70 0 0 -609 70 0 0 224z"/>
  <path id="5" class="fil4" d="M6461 1508c0,-62 15,-111 45,-148 31,-36 71,-54 120,-54 50,0 90,18 120,53 30,35 46,84 47,145l0 45c0,62 -15,111 -45,147 -31,37 -71,55 -121,55 -50,0 -90,-18 -119,-53 -30,-35 -46,-83 -47,-143l0 -47zm70 41c0,44 9,79 26,104 17,25 41,38 70,38 62,0 94,-45 96,-134l0 -49c0,-44 -9,-78 -27,-104 -17,-25 -40,-38 -70,-38 -29,0 -52,13 -69,38 -17,26 -26,60 -26,104l0 41zm70 -306l-1 -60c16,-1 27,-4 34,-8 8,-4 11,-11 11,-22 0,-20 -17,-31 -50,-31l2 -42c34,0 60,7 76,21 17,13 26,31 26,54 0,17 -4,31 -13,41 -9,10 -21,17 -36,19l0 28 -49 0z"/>
  <path id="6" class="fil4" d="M7036 1751c-53,0 -94,-16 -123,-48 -28,-32 -43,-79 -43,-140l0 -52c0,-64 14,-114 42,-151 28,-36 66,-54 116,-54 51,0 88,16 113,48 25,32 37,82 38,149l0 46 -239 0 0 10c0,46 8,80 26,100 17,21 42,32 74,32 21,0 39,-4 55,-12 16,-8 30,-20 44,-37l36 44c-30,43 -76,65 -139,65zm-8 -385c-29,0 -50,10 -64,30 -14,20 -22,51 -24,93l169 0 0 -9c-2,-41 -9,-70 -22,-88 -13,-17 -32,-26 -59,-26z"/>
  <polygon id="7" class="fil4" points="7571,1636 7652,1314 7723,1314 7596,1743 7544,1743 7415,1314 7486,1314 "/>
  <path id="8" class="fil4" d="M8011 1743c-4,-10 -7,-25 -9,-47 -25,36 -57,55 -95,55 -39,0 -69,-11 -91,-33 -22,-22 -33,-53 -33,-92 0,-44 15,-78 44,-104 30,-25 71,-39 122,-39l52 0 0 -46c0,-26 -6,-44 -17,-55 -12,-11 -29,-16 -52,-16 -21,0 -39,6 -52,19 -13,12 -20,28 -20,48l-70 0c0,-22 7,-43 20,-63 13,-20 30,-36 52,-47 22,-11 46,-17 73,-17 44,0 78,11 100,33 23,21 35,53 35,95l0 216c1,33 5,62 14,86l0 7 -73 0zm-94 -55c18,0 34,-5 50,-14 15,-10 27,-22 34,-36l0 -103 -40 0c-33,0 -60,8 -79,22 -19,15 -29,35 -29,61 0,25 5,43 15,54 10,11 26,16 49,16zm65 -436l-63 0 -103 -117 89 0 77 117z"/>
  <polygon id="9" class="fil4" points="8487,1636 8568,1314 8639,1314 8512,1743 8460,1743 8331,1314 8402,1314 "/>
  <path id="10" class="fil4" d="M8860 1751c-53,0 -94,-16 -123,-48 -28,-32 -43,-79 -43,-140l0 -52c0,-64 14,-114 41,-151 28,-36 67,-54 117,-54 50,0 88,16 113,48 25,32 37,82 38,149l0 46 -240 0 0 10c0,46 9,80 26,100 18,21 43,32 75,32 21,0 39,-4 55,-12 15,-8 30,-20 44,-37l36 44c-30,43 -76,65 -139,65zm-8 -385c-29,0 -50,10 -64,30 -14,20 -22,51 -24,93l169 0 0 -9c-2,-41 -10,-70 -22,-88 -13,-17 -33,-26 -59,-26zm-24 -123l-1 -60c16,-1 27,-4 34,-8 8,-4 11,-11 11,-22 0,-20 -16,-31 -50,-31l2 -42c34,0 60,7 77,21 17,13 25,31 25,54 0,17 -4,31 -13,41 -9,10 -21,17 -36,19l0 28 -49 0z"/>
  <path id="11" class="fil4" d="M9632 1254l-64 0 0 489 -64 0 -4 -46c-23,36 -56,54 -99,54 -44,0 -79,-17 -104,-52 -25,-34 -38,-83 -39,-146l0 -44c0,-66 13,-117 37,-151 25,-35 61,-52 107,-52 41,0 73,17 96,50l0 -102 -81 0 0 -60 81 0 0 -60 70 0 0 60 64 0 0 60zm-304 295c0,48 8,83 22,105 14,23 37,34 70,34 34,0 61,-17 78,-52l0 -216c-18,-34 -44,-52 -78,-52 -32,0 -56,12 -70,34 -14,23 -21,57 -22,104l0 43z"/>
  <path id="12" class="fil4" d="M9841 1751c-54,0 -95,-16 -123,-48 -29,-32 -43,-79 -44,-140l0 -52c0,-64 14,-114 42,-151 28,-36 67,-54 117,-54 50,0 87,16 112,48 25,32 38,82 38,149l0 46 -239 0 0 10c0,46 9,80 26,100 17,21 42,32 75,32 20,0 38,-4 54,-12 16,-8 30,-20 44,-37l37 44c-31,43 -77,65 -139,65zm-8 -385c-29,0 -51,10 -65,30 -14,20 -22,51 -24,93l169 0 0 -9c-2,-41 -9,-70 -22,-88 -13,-17 -32,-26 -58,-26zm-47 474c0,-12 4,-22 11,-31 7,-8 18,-12 32,-12 15,0 26,4 33,12 7,9 11,19 11,31 0,11 -4,21 -11,29 -7,8 -18,12 -33,12 -14,0 -25,-4 -32,-12 -7,-8 -11,-18 -11,-29z"/>
  <path id="13" class="fil4" d="M10377 1549c0,68 -12,118 -36,152 -25,33 -59,50 -104,50 -43,0 -76,-17 -99,-49l0 205 -70 0 0 -593 63 0 4 47c23,-37 57,-55 101,-55 47,0 82,16 105,49 24,33 35,82 36,147l0 47zm-69 -40c0,-48 -8,-84 -23,-106 -14,-23 -38,-35 -71,-35 -34,0 -59,17 -76,51l0 223c17,32 42,49 77,49 31,0 55,-12 70,-35 15,-22 22,-57 23,-104l0 -43z"/>
  <polygon id="14" class="fil4" points="10729,1743 10659,1743 10659,1134 10729,1134 "/>
  <path id="15" class="fil4" d="M11060 1743c-4,-10 -7,-25 -9,-47 -25,36 -56,55 -95,55 -39,0 -69,-11 -91,-33 -22,-22 -33,-53 -33,-92 0,-44 15,-78 45,-104 29,-25 70,-39 121,-39l52 0 0 -46c0,-26 -6,-44 -17,-55 -12,-11 -29,-16 -52,-16 -21,0 -38,6 -52,19 -13,12 -19,28 -19,48l-71 0c0,-22 7,-43 20,-63 13,-20 30,-36 52,-47 22,-11 47,-17 73,-17 44,0 78,11 101,33 22,21 34,53 35,95l0 216c0,33 4,62 13,86l0 7 -73 0zm-93 -55c17,0 33,-5 49,-14 15,-10 27,-22 34,-36l0 -103 -40 0c-33,0 -59,8 -79,22 -19,15 -29,35 -29,61 0,25 5,43 15,54 10,11 26,16 50,16zm64 -436l-63 0 -102 -117 88 0 77 117z"/>
  <path id="16" class="fil4" d="M11294 1314l2 46c28,-36 62,-54 105,-54 75,0 114,51 115,152l0 285 -70 0 0 -282c0,-33 -5,-57 -17,-71 -11,-15 -28,-22 -50,-22 -18,0 -33,6 -47,18 -14,11 -25,27 -34,45l0 312 -70 0 0 -429 66 0z"/>
  <path id="17" class="fil4" d="M11792 1509c0,-66 12,-117 37,-151 25,-35 60,-52 107,-52 40,0 73,17 96,50l0 -222 70 0 0 609 -65 0 -3 -46c-23,36 -56,54 -99,54 -44,0 -79,-17 -104,-52 -26,-34 -38,-83 -39,-146l0 -44zm70 40c0,48 7,83 22,105 14,23 37,34 69,34 35,0 61,-17 79,-52l0 -216c-18,-34 -44,-52 -78,-52 -32,0 -56,12 -70,34 -14,23 -21,57 -22,104l0 43z"/>
  <path id="18" class="fil4" d="M12430 1743c-4,-10 -7,-25 -9,-47 -25,36 -56,55 -95,55 -39,0 -69,-11 -91,-33 -22,-22 -33,-53 -33,-92 0,-44 15,-78 45,-104 29,-25 70,-39 121,-39l52 0 0 -46c0,-26 -6,-44 -17,-55 -12,-11 -29,-16 -52,-16 -21,0 -38,6 -52,19 -13,12 -19,28 -19,48l-70 0c0,-22 6,-43 19,-63 13,-20 30,-36 52,-47 22,-11 47,-17 74,-17 43,0 77,11 100,33 23,21 34,53 35,95l0 216c0,33 4,62 13,86l0 7 -73 0zm-93 -55c17,0 33,-5 49,-14 15,-10 27,-22 34,-36l0 -103 -40 0c-33,0 -59,8 -79,22 -19,15 -29,35 -29,61 0,25 5,43 15,54 10,11 26,16 50,16z"/>
  <polygon id="19" class="fil5" points="4397,2717 4284,2717 4284,2108 4397,2108 "/>
  <path id="20" class="fil5" d="M4687 2717c-3,-7 -6,-18 -9,-33 -20,27 -47,41 -82,41 -36,0 -65,-12 -89,-36 -24,-24 -36,-55 -36,-92 0,-45 15,-80 43,-105 29,-24 70,-37 124,-38l34 0 0 -34c0,-19 -3,-33 -10,-40 -6,-8 -16,-12 -29,-12 -27,0 -41,16 -41,48l-113 0c0,-39 15,-72 45,-97 30,-26 67,-39 113,-39 47,0 83,12 109,37 26,24 38,59 38,105l0 201c1,37 6,66 16,87l0 7 -113 0zm-66 -80c13,0 23,-2 32,-7 9,-5 15,-12 19,-18l0 -90 -27 0c-19,0 -34,6 -45,18 -11,12 -16,29 -16,49 0,32 12,48 37,48zm68 -407l-94 0 -110 -122 126 0 78 122z"/>
  <path id="21" class="fil5" d="M5242 2602c0,-10 -4,-18 -13,-26 -9,-9 -30,-19 -61,-33 -46,-19 -78,-38 -95,-58 -18,-20 -26,-46 -26,-75 0,-38 13,-69 40,-93 27,-25 63,-37 108,-37 47,0 85,12 113,37 28,24 42,56 42,97l-112 0c0,-35 -14,-52 -44,-52 -11,0 -21,4 -29,11 -7,8 -11,18 -11,31 0,10 4,18 12,25 9,8 29,18 60,31 46,17 78,36 97,57 19,21 28,47 28,80 0,39 -14,70 -43,93 -29,23 -66,35 -113,35 -32,0 -59,-6 -83,-19 -24,-12 -43,-29 -57,-51 -13,-22 -20,-46 -20,-71l106 0c1,20 5,34 14,44 9,10 23,15 42,15 30,0 45,-14 45,-41z"/>
  <path id="22" class="fil5" d="M5842 2250c0,47 -8,82 -24,105 -16,24 -41,38 -77,43l0 319 -106 0 -3 -40c-23,32 -54,48 -93,48 -40,0 -69,-14 -90,-41 -20,-27 -30,-66 -30,-118l0 -278 112 0 0 281c0,42 14,63 41,63 26,0 45,-11 56,-33l0 -311 113 0 0 54c13,-5 23,-13 28,-25 6,-13 8,-35 8,-67l65 0zm-240 -134l126 0 -110 123 -94 0 78 -123z"/>
  <path id="23" class="fil5" d="M6153 2288l3 39c25,-31 58,-47 99,-47 43,0 73,19 91,58 25,-39 60,-58 105,-58 75,0 114,52 115,156l0 281 -112 0 0 -275c0,-25 -3,-43 -10,-54 -7,-10 -19,-15 -35,-15 -21,0 -36,12 -47,38l1 14 0 292 -112 0 0 -274c0,-25 -3,-43 -10,-54 -7,-11 -18,-16 -35,-16 -20,0 -35,10 -46,31l0 313 -112 0 0 -429 105 0z"/>
  <path id="24" class="fil5" d="M6822 2725c-57,0 -102,-17 -134,-52 -33,-34 -49,-83 -49,-147l0 -34c0,-68 15,-120 45,-157 29,-37 72,-55 127,-55 54,0 94,17 122,52 27,34 41,85 41,153l0 55 -223 0c2,32 9,55 21,70 12,15 32,22 58,22 37,0 68,-13 94,-39l43 68c-13,19 -33,34 -59,46 -27,12 -55,18 -86,18zm-70 -263l112 0 0 -11c-1,-25 -5,-45 -13,-58 -8,-14 -21,-20 -41,-20 -19,0 -34,7 -42,21 -9,14 -15,37 -16,68zm181 -243l0 5 -88 0 -49 -57 -50 57 -85 0 0 -7 103 -109 64 0 105 111zm-128 535c20,0 35,5 47,16 12,10 19,23 19,39 0,16 -7,29 -19,40 -12,10 -27,15 -47,15 -18,0 -34,-5 -46,-15 -12,-11 -18,-24 -18,-40 0,-16 6,-29 18,-39 12,-11 28,-16 46,-16z"/>
  <path id="25" class="fil5" d="M7140 2288l3 42c26,-33 59,-50 100,-50 73,0 111,52 113,155l0 282 -112 0 0 -275c0,-24 -4,-42 -11,-53 -7,-11 -20,-16 -38,-16 -21,0 -36,10 -48,31l0 313 -112 0 0 -429 105 0z"/>
  <path id="26" class="fil5" d="M7546 2326c25,-31 54,-46 90,-46 39,0 69,14 89,41 20,28 31,69 31,123l0 273 -113 0 0 -273c0,-25 -4,-43 -11,-55 -8,-11 -21,-16 -38,-16 -21,0 -36,9 -48,28l0 316 -112 0 0 -609 112 0 0 218z"/>
  <path id="27" class="fil5" d="M8178 2632c33,0 49,-21 50,-64l105 0c0,47 -15,85 -43,114 -28,28 -65,43 -109,43 -55,0 -98,-17 -127,-52 -29,-34 -44,-85 -44,-152l0 -34c0,-67 14,-119 43,-154 29,-35 71,-53 127,-53 47,0 85,15 112,44 27,29 41,70 41,124l-105 0c0,-24 -4,-43 -12,-56 -8,-13 -20,-19 -38,-19 -20,0 -33,7 -42,20 -8,14 -13,41 -14,82l0 43c0,35 2,60 6,74 3,14 9,24 17,31 8,6 19,9 33,9z"/>
  <path id="28" class="fil5" d="M8608 2678c-24,31 -55,47 -94,47 -39,0 -69,-14 -90,-41 -20,-27 -30,-66 -30,-118l0 -278 112 0 0 281c1,42 14,63 42,63 25,0 44,-11 55,-33l0 -311 113 0 0 429 -105 0 -3 -39zm-96 -463l-6 -53c15,-1 26,-3 32,-7 7,-4 10,-10 10,-19 0,-10 -3,-17 -11,-21 -7,-4 -17,-5 -30,-5l2 -55c45,0 78,7 100,21 22,14 33,33 33,56 0,15 -4,28 -12,38 -8,10 -19,17 -34,19l0 26 -84 0z"/>
  <path id="29" class="fil5" d="M9000 2717c-3,-7 -6,-18 -9,-33 -20,27 -48,41 -82,41 -36,0 -66,-12 -89,-36 -24,-24 -36,-55 -36,-92 0,-45 14,-80 43,-105 29,-24 70,-37 124,-38l34 0 0 -34c0,-19 -3,-33 -10,-40 -7,-8 -16,-12 -29,-12 -28,0 -42,16 -42,48l-112 0c0,-39 15,-72 45,-97 29,-26 67,-39 112,-39 47,0 84,12 110,37 25,24 38,59 38,105l0 201c1,37 6,66 16,87l0 7 -113 0zm-66 -80c12,0 23,-2 32,-7 8,-5 15,-12 19,-18l0 -90 -27 0c-19,0 -34,6 -45,18 -11,12 -16,29 -16,49 0,32 12,48 37,48z"/>
  <path id="30" class="fil5" d="M9520 2632c33,0 49,-21 50,-64l105 0c0,47 -15,85 -43,114 -28,28 -65,43 -109,43 -55,0 -98,-17 -127,-52 -29,-34 -44,-85 -44,-152l0 -34c0,-67 14,-119 43,-154 29,-35 71,-53 127,-53 47,0 84,15 112,44 27,29 41,70 41,124l-105 0c0,-24 -4,-43 -12,-56 -8,-13 -20,-19 -38,-19 -20,0 -34,7 -42,20 -8,14 -13,41 -14,82l0 43c0,35 2,60 6,74 3,14 9,24 17,31 8,6 19,9 33,9z"/>
  <path id="31" class="fil5" d="M9848 2326c24,-31 54,-46 90,-46 39,0 68,14 89,41 20,28 30,69 31,123l0 273 -113 0 0 -273c0,-25 -4,-43 -12,-55 -7,-11 -20,-16 -37,-16 -21,0 -37,9 -48,28l0 316 -112 0 0 -609 112 0 0 218z"/>
  <path id="32" class="fil5" d="M10349 2678c-23,31 -55,47 -94,47 -39,0 -69,-14 -89,-41 -20,-27 -31,-66 -31,-118l0 -278 113 0 0 281c0,42 14,63 41,63 26,0 44,-11 56,-33l0 -311 113 0 0 429 -106 0 -3 -39zm-32 -570l126 0 -110 122 -93 0 77 -122z"/>
  <path id="33" class="fil5" d="M10640 2288l3 42c26,-33 59,-50 100,-50 74,0 111,52 114,155l0 282 -113 0 0 -275c0,-24 -4,-42 -11,-53 -7,-11 -20,-16 -38,-16 -20,0 -36,10 -48,31l0 313 -112 0 0 -429 105 0z"/>
  <path id="34" class="fil5" d="M10924 2489c0,-70 12,-122 38,-157 25,-35 61,-52 106,-52 39,0 69,15 90,46l5 -38 101 0 0 429c0,54 -16,96 -46,125 -31,29 -75,43 -132,43 -24,0 -48,-4 -74,-14 -26,-9 -46,-21 -58,-35l37 -78c11,11 25,20 42,27 17,7 33,10 48,10 25,0 43,-6 54,-18 11,-12 16,-31 17,-57l0 -37c-22,28 -50,42 -84,42 -46,0 -81,-18 -106,-54 -25,-35 -38,-85 -38,-150l0 -32zm112 28c0,40 5,70 15,88 11,18 27,27 49,27 23,0 40,-8 52,-25l0 -207c-12,-18 -29,-27 -51,-27 -22,0 -38,9 -49,27 -11,19 -16,48 -16,89l0 28z"/>
  <path id="35" class="fil5" d="M11663 2183l0 105 57 0 0 85 -57 0 0 212c0,17 2,29 7,35 4,7 13,10 26,10 11,0 20,-1 27,-3l-1 87c-19,7 -39,11 -62,11 -72,0 -109,-42 -109,-125l0 -227 -50 0 0 -85 50 0 0 -105 112 0z"/>
  <path id="36" class="fil5" d="M11757 2488c0,-64 15,-115 46,-153 31,-36 73,-55 127,-55 55,0 97,19 128,55 31,38 46,89 46,154l0 28c0,65 -15,116 -45,153 -31,36 -73,55 -128,55 -55,0 -98,-19 -128,-56 -31,-36 -46,-88 -46,-153l0 -28zm112 29c0,77 21,115 62,115 38,0 58,-32 61,-96l0 -48c0,-39 -5,-68 -16,-87 -11,-19 -26,-28 -46,-28 -19,0 -34,9 -44,28 -11,19 -17,48 -17,87l0 29zm197 -298l0 5 -88 0 -49 -57 -50 57 -85 0 0 -7 103 -109 64 0 105 111z"/>
  <path id="37" class="fil5" d="M12291 2717l-112 0 0 -429 112 0 0 429zm-117 -541c0,-17 5,-32 16,-43 11,-11 26,-17 45,-17 18,0 33,6 44,17 11,11 17,26 17,43 0,18 -6,32 -17,44 -11,11 -26,17 -44,17 -19,0 -34,-6 -45,-17 -11,-12 -16,-26 -16,-44z"/>
 </g>
</svg>
